<svg id="Settings" xmlns="http://www.w3.org/2000/svg" width="24" height="24" viewBox="0 0 24 24">
  <path id="Path" d="M6,14.71a6.961,6.961,0,0,1-1.531-.665l-.161.161a1,1,0,0,1-1.414,0l-1.1-1.1a1,1,0,0,1,0-1.414l.161-.161A6.961,6.961,0,0,1,1.29,10H1A1,1,0,0,1,0,9V7A1,1,0,0,1,1,6h.29a6.961,6.961,0,0,1,.665-1.531l-.161-.161a1,1,0,0,1,0-1.414l1.1-1.1a1,1,0,0,1,1.414,0l.161.161A6.961,6.961,0,0,1,6,1.29V1A1,1,0,0,1,7,0H9a1,1,0,0,1,1,1v.29a6.961,6.961,0,0,1,1.531.665l.161-.161a1,1,0,0,1,1.414,0l1.1,1.1a1,1,0,0,1,0,1.414l-.161.161A6.961,6.961,0,0,1,14.71,6H15a1,1,0,0,1,1,1V9a1,1,0,0,1-1,1h-.29a6.961,6.961,0,0,1-.665,1.531l.161.161a1,1,0,0,1,0,1.414l-1.1,1.1a1,1,0,0,1-1.414,0l-.161-.161A6.961,6.961,0,0,1,10,14.71V15a1,1,0,0,1-1,1H7a1,1,0,0,1-1-1v-.29Z" transform="translate(4 4)" fill="none" stroke="#363837" stroke-linecap="round" stroke-linejoin="round" stroke-miterlimit="10" stroke-width="1"/>
  <circle id="Oval" cx="4" cy="4" r="4" transform="translate(8 8)" fill="none" stroke="#363837" stroke-miterlimit="10" stroke-width="1"/>
</svg>
